<?xml version="1.0" encoding="UTF-8"?>
<svg width="90px" height="27px" viewBox="0 0 90 27" version="1.1" xmlns="http://www.w3.org/2000/svg" xmlns:xlink="http://www.w3.org/1999/xlink">
    <!-- Generator: Sketch 51.3 (57544) - http://www.bohemiancoding.com/sketch -->
    <title>apple_light</title>
    <desc>Created with Sketch.</desc>
    <defs></defs>
    <g id="Website-detail-page" stroke="none" stroke-width="1" fill="none" fill-rule="evenodd">
        <g id="FITPASS_home_page_3-Copy" transform="translate(-1098.000000, -5207.000000)" fill="#FFFFFF" fill-rule="nonzero">
            <g id="Group-44" transform="translate(0.000000, 4979.000000)">
                <g id="Group-29" transform="translate(1095.000000, 198.000000)">
                    <g id="Group-39">
                        <g id="apple_light" transform="translate(3.000000, 30.000000)">
                            <path d="M86.1452186,26.9879097 L3.85478135,26.9879097 C1.7396426,26.9977761 0.0154874163,25.2737947 0,23.1335169 L0,3.85621438 C0.0145227578,1.71523995 1.73896104,-0.00982056696 3.85478135,4.20805365e-05 L86.1452186,4.20805365e-05 C88.261039,-0.00982056696 89.9854772,1.71523995 90,3.85621438 L90,23.1335169 C89.9845126,25.2737947 88.2603574,26.9977761 86.1452186,26.9879097 Z M3.85478135,0.460932078 C1.99177027,0.452056753 0.473331916,1.97105246 0.460744851,3.85621438 L0.460744851,23.1335169 C0.474296748,25.0179822 1.99245191,26.5358986 3.85478135,26.5270197 L86.1452186,26.5270197 C88.006863,26.5349147 89.5239454,25.0172846 89.5374966,23.1335169 L89.5374966,3.85621438 C89.5239447,1.97174905 88.0057895,0.453832615 86.1434601,0.462711576 L3.85478135,0.460932078 Z" id="Shape"></path>
                            <g id="group" transform="translate(7.590361, 4.497992)">
                                <path d="M11.7923236,9.37228916 C11.773012,7.15120482 13.5654733,6.07048193 13.6462306,6.01987952 C12.9236361,4.96311602 11.7602535,4.31779116 10.5054733,4.27771084 C9.18351119,4.13493976 7.90192771,5.08915663 7.22953528,5.08915663 C6.55714286,5.08915663 5.50729776,4.29036145 4.38898451,4.31385542 C2.92458177,4.36457199 1.59267513,5.20024548 0.877796902,6.51686747 C-0.644302926,9.22771084 0.491566265,13.2036145 1.94870912,15.3722892 C2.67728055,16.4421687 3.52874355,17.6385542 4.6453012,17.596988 C5.76185886,17.5554217 6.14457831,16.8740964 7.45425129,16.8740964 C8.76392427,16.8740964 9.14137694,17.596988 10.2807573,17.5608434 C11.4517384,17.5409639 12.1890878,16.476506 12.8930809,15.4048193 C13.4173526,14.6425834 13.8208839,13.799584 14.0886403,12.9072289 C14.0623064,12.9162651 11.8151463,12.0361446 11.7923236,9.37228916 Z" id="path-3"></path>
                                <path d="M9.64347676,2.83915663 C10.2298451,2.08554217 10.6318761,1.06084337 10.5212737,0.0198795181 C9.67156627,0.0578313253 8.60943201,0.623493976 7.99672978,1.36084337 C7.45600688,2.00963855 6.97146299,3.07409639 7.09611015,4.07168675 C8.05115318,4.15662651 9.03077453,3.58012048 9.64347676,2.83915663 Z" id="path-4"></path>
                            </g>
                            <g id="group-3" transform="translate(27.604131, 12.630522)">
                                <path d="M7.57363167,9.31987952 L6.04802065,9.31987952 L5.212358,6.6253012 L2.30860585,6.6253012 L1.51332186,9.31987952 L0.0280895009,9.31987952 L2.90550775,0.146385542 L4.68392427,0.146385542 L7.57363167,9.31987952 Z M4.96130809,5.4939759 L4.21342513,3.09939759 C4.13383821,2.85843373 3.98344234,2.28253012 3.76223752,1.37168675 L3.73590361,1.37168675 C3.64812392,1.76204819 3.50650602,2.33795181 3.31104991,3.09939759 L2.56141136,5.4939759 L4.96130809,5.4939759 Z" id="path-5"></path>
                                <path d="M14.9734596,5.9313253 C14.9734596,7.05662651 14.6773494,7.94578313 14.0851291,8.59879518 C13.5799343,9.16688237 12.861621,9.48359721 12.1135972,9.46807229 C11.2650602,9.46807229 10.655284,9.15481928 10.2842685,8.52831325 L10.2579346,8.52831325 L10.2579346,12.0126506 L8.82537005,12.0126506 L8.82537005,4.87951807 C8.82537005,4.17228916 8.80781411,3.44939759 8.77270224,2.71084337 L10.031463,2.71084337 L10.1104647,3.75903614 L10.1367986,3.75903614 C10.6143201,2.9686747 11.3393804,2.57409639 12.3119793,2.5753012 C13.0511209,2.56458171 13.7535816,2.90612978 14.215043,3.50060241 C14.7218244,4.11385542 14.9746299,4.92409639 14.9734596,5.9313253 Z M13.5145611,5.98554217 C13.5372191,5.42225354 13.3887105,4.86570701 13.0897074,4.39337349 C12.8084223,3.97234664 12.3394637,3.72621139 11.8432358,3.73915663 C11.4917721,3.73946434 11.1516924,3.86746509 10.882926,4.10060241 C10.5957337,4.34093303 10.3969077,4.6750423 10.3193804,5.04759036 C10.2800014,5.19374604 10.2576074,5.34419524 10.2526678,5.49578313 L10.2526678,6.59819277 C10.2411697,7.04593641 10.3955714,7.48141426 10.6845439,7.81626506 C10.9671759,8.14564861 11.377927,8.3279038 11.8046127,8.31325301 C12.3024928,8.33378688 12.7764874,8.09288145 13.0633735,7.67349398 C13.366506,7.24578313 13.5180723,6.68253012 13.5180723,5.98373494 L13.5145611,5.98554217 Z" id="path-6"></path>
                                <path d="M22.3873322,5.9313253 C22.3873322,7.05662651 22.0906368,7.94578313 21.4972461,8.59879518 C20.9916909,9.16870567 20.271761,9.48622767 19.5222031,9.46987952 C18.6736661,9.46987952 18.0638898,9.15662651 17.6928744,8.53012048 L17.6665404,8.53012048 L17.6665404,12.0144578 L16.2357315,12.0144578 L16.2357315,4.87951807 C16.2357315,4.17228916 16.2181756,3.44939759 16.1830637,2.71084337 L17.4418244,2.71084337 L17.5208262,3.75903614 L17.5471601,3.75903614 C18.0246816,2.9686747 18.7497418,2.57409639 19.7223408,2.5753012 C20.4613093,2.56540222 21.1634374,2.9067886 21.6254045,3.50060241 C22.1321859,4.11385542 22.3861618,4.92409639 22.3873322,5.9313253 Z M20.9284337,5.98554217 C20.9510918,5.42225354 20.8025831,4.86570701 20.50358,4.39337349 C20.2225143,3.97208923 19.7534099,3.72587744 19.2571084,3.73915663 C18.9050679,3.73919393 18.5643479,3.86720165 18.295043,4.10060241 C18.0080812,4.34037569 17.8092624,4.67383538 17.7314974,5.04578313 C17.6924675,5.19201565 17.6700798,5.34242228 17.6647849,5.4939759 L17.6647849,6.59638554 C17.6533338,7.04379769 17.8070289,7.47905183 18.0949053,7.81445783 C18.3782298,8.14391667 18.7895313,8.32613047 19.2167298,8.31144578 C19.7146099,8.33197965 20.1886044,8.09107422 20.4754905,7.67168675 C20.7774527,7.24518072 20.9284337,6.68253012 20.9284337,5.98373494 L20.9284337,5.98554217 Z" id="path-7"></path>
                                <path d="M30.6754905,6.74638554 C30.6988871,7.47112555 30.4081293,8.16907275 29.8819621,8.65120482 C29.2967642,9.1873494 28.4850947,9.45481928 27.4469535,9.45361446 C26.4848881,9.45361446 25.7124269,9.26325301 25.1295697,8.88253012 L25.4613769,7.65722892 C26.0852626,8.0461389 26.8018869,8.24886604 27.531222,8.24277108 C27.9808949,8.2705109 28.4261011,8.13774417 28.7917384,7.86686747 C29.0879749,7.62512968 29.2548349,7.2527428 29.2411704,6.86385542 C29.248673,6.51110185 29.1139375,6.17089857 28.8689845,5.92409639 C28.5112187,5.60277409 28.0928417,5.36097682 27.6400688,5.21385542 C26.0752496,4.61144578 25.2934251,3.73433735 25.2945955,2.58253012 C25.2770041,1.86690713 25.5807552,1.18286733 26.117969,0.728313253 C26.6645439,0.246385542 27.3937005,0.00542168675 28.3054389,0.00542168675 C29.0055553,-0.019647982 29.7011924,0.129771387 30.3331497,0.440963855 L29.982031,1.63915663 C29.4531424,1.3531453 28.8623451,1.21011877 28.2650602,1.22349398 C27.8398775,1.19657738 27.4199404,1.33166745 27.0853012,1.60301205 C26.8559571,1.81404993 26.7276883,2.11774524 26.7341824,2.43433735 C26.7261128,2.78514432 26.8781583,3.11958329 27.1449914,3.33795181 C27.3790706,3.5560241 27.8127022,3.79216867 28.4458864,4.04638554 C29.2148365,4.36445783 29.7807229,4.73614458 30.1435456,5.16144578 C30.5061315,5.60329484 30.6957823,6.16836312 30.6754905,6.74638554 Z" id="path-8"></path>
                                <path d="M35.410327,3.80783133 L33.8302926,3.80783133 L33.8302926,7.01927711 C33.8302926,7.83614458 34.1088468,8.24457831 34.6659552,8.24457831 C34.8797542,8.24916147 35.0932662,8.22608942 35.3014802,8.17590361 L35.3418589,9.29277108 C34.9828241,9.4130701 34.6061859,9.46810864 34.2288124,9.45542169 C33.7326215,9.4839494 33.2486851,9.29021673 32.9015835,8.92409639 C32.5844062,8.56987952 32.4252324,7.9753012 32.424062,7.14036145 L32.424062,3.8060241 L31.4830637,3.8060241 L31.4830637,2.71084337 L32.424062,2.71084337 L32.424062,1.5 L33.828537,1.06445783 L33.828537,2.71084337 L35.4085714,2.71084337 L35.4085714,3.81506024 L35.410327,3.80783133 Z" id="path-9"></path>
                                <path d="M42.5310155,5.96385542 C42.5310155,6.98072289 42.2483649,7.81566265 41.6830637,8.4686747 C41.089673,9.13975904 40.3025818,9.4753012 39.32179,9.4753012 C38.3761102,9.4753012 37.6229604,9.15361446 37.0623408,8.51024096 C36.4907817,7.83801633 36.1894545,6.96689996 36.2196558,6.07409639 C36.2196558,5.04879518 36.5093287,4.20963855 37.0886747,3.55662651 C37.6680207,2.90361446 38.4480895,2.57710843 39.4288812,2.57710843 C40.3745611,2.57710843 41.1353184,2.89939759 41.7111532,3.5439759 C42.2577281,4.16325301 42.5310155,4.96987952 42.5310155,5.96385542 Z M41.0457831,6.01084337 C41.0614705,5.46078834 40.9283601,4.91706654 40.6613081,4.44036145 C40.4148013,3.94565787 39.9162258,3.63855553 39.3762134,3.64879518 C38.8274961,3.63259867 38.3178138,3.93982695 38.0630293,4.44036145 C37.7939094,4.92608157 37.6608256,5.47907845 37.6785542,6.03795181 C37.6629163,6.58742882 37.7960344,7.13055626 38.0630293,7.60662651 C38.3173773,8.10149324 38.8201303,8.4074075 39.3639243,8.39819277 C39.9104991,8.39819277 40.338864,8.13012048 40.6490189,7.5939759 C40.9231012,7.11312267 41.0605695,6.56273048 41.0457831,6.00542169 L41.0457831,6.01084337 Z" id="path-10"></path>
                                <path d="M47.1850947,3.99759036 C47.036182,3.97027438 46.8851632,3.95696648 46.7339071,3.95783133 C46.2733311,3.93588315 45.8335074,4.15647588 45.5664372,4.54337349 C45.3185561,4.92994043 45.1956671,5.38725021 45.2153184,5.85 L45.2153184,9.32168675 L43.7845095,9.32168675 L43.7985542,4.78915663 C43.7985542,4.02650602 43.7804131,3.33253012 43.7441308,2.70722892 L44.992358,2.70722892 L45.0450258,3.97228916 L45.0854045,3.97228916 C45.2210454,3.55913299 45.469785,3.19513262 45.8016867,2.92409639 C46.1000543,2.69178061 46.4633899,2.5649935 46.8374871,2.5626506 C46.9550269,2.56245822 47.0724088,2.5715208 47.1886059,2.58975904 L47.1850947,3.99759036 Z" id="path-11"></path>
                                <path d="M53.5895009,5.69819277 C53.5930748,5.92171683 53.5754352,6.14506598 53.536833,6.36506024 L49.240895,6.36506024 C49.2572806,7.01807229 49.4650258,7.51746988 49.8641308,7.86325301 C50.2639705,8.18444793 50.7619045,8.34847324 51.2686059,8.32590361 C51.8618077,8.33398012 52.4512579,8.22794563 53.0066437,8.01325301 L53.2313597,9.03433735 C52.5458826,9.32185153 51.8102085,9.4608868 51.0702238,9.44277108 C50.0707057,9.44277108 49.2859552,9.14156627 48.7159725,8.53915663 C48.1459897,7.93674699 47.8609983,7.12710843 47.8609983,6.11024096 C47.8609983,5.1126506 48.1266781,4.28253012 48.6580379,3.61987952 C49.2022791,2.91628812 50.0391544,2.52110339 50.9122203,2.55542169 C51.8415146,2.55542169 52.5437522,2.90903614 53.0189329,3.61626506 C53.4137484,4.23277679 53.6130955,4.96016821 53.5895009,5.69819277 Z M52.2236489,5.31686747 C52.2428422,4.92029396 52.1462312,4.52688988 51.9462651,4.1873494 C51.7048111,3.78205626 51.2661748,3.54656213 50.8051291,3.5746988 C50.3519625,3.56686167 49.9247572,3.79182884 49.6657487,4.1746988 C49.4221956,4.50632646 49.2754377,4.90250475 49.2426506,5.31686747 L52.2271601,5.31686747 L52.2236489,5.31686747 Z" id="path-12"></path>
                            </g>
                            <path d="M32.0914286,7.13293173 C32.0914286,7.9437751 31.8573494,8.55461847 31.389191,8.96546185 C30.9502926,9.3437751 30.3270568,9.53293173 29.5194836,9.53293173 C29.1752326,9.53588387 28.8311151,9.51777968 28.4889501,9.47871486 L28.4889501,5.04016064 C28.8902423,4.97560044 29.2959068,4.944175 29.7020654,4.94618474 C30.4710155,4.94618474 31.0509466,5.11787149 31.4418589,5.46124498 C31.8749053,5.85281124 32.0914286,6.41004016 32.0914286,7.13293173 Z M31.3488124,7.15281124 C31.3488124,6.62630522 31.2130465,6.22269076 30.9415146,5.94196787 C30.6699828,5.66124498 30.2732186,5.52088353 29.751222,5.52088353 C29.5611809,5.51792342 29.3712995,5.53365753 29.1841652,5.56787149 L29.1841652,8.93835341 C29.3421802,8.95541197 29.501093,8.96205203 29.6599312,8.95823293 C30.1983133,8.95823293 30.614389,8.80461847 30.9081583,8.49738956 C31.2019277,8.19016064 31.3493976,7.74196787 31.350568,7.15281124 L31.3488124,7.15281124 Z" id="path-13"></path>
                            <path d="M36.0309811,7.84136546 C36.048075,8.29126411 35.8987538,8.73108985 35.6131497,9.07208835 C35.3140831,9.40224205 34.8889565,9.58007066 34.4509466,9.55823293 C34.0303093,9.57766498 33.6230701,9.40348799 33.3396558,9.08293173 C33.059473,8.75257708 32.9119625,8.3248152 32.9270912,7.88654618 C32.9130384,7.43912752 33.0649392,7.00297569 33.3519449,6.66666667 C33.6483113,6.34072459 34.0686459,6.16500323 34.5018589,6.18594378 C34.9244256,6.16808768 35.3335083,6.34102187 35.6219277,6.65943775 C35.8985571,6.98599417 36.044719,7.40831753 36.0309811,7.84136546 Z M35.300654,7.86485944 C35.3080232,7.59533116 35.2430229,7.32893366 35.1128055,7.09497992 C34.990246,6.85306206 34.7458127,6.70278756 34.4807917,6.7064257 C34.2107592,6.69722104 33.9595437,6.84830776 33.8347332,7.09497992 C33.7029386,7.33354419 33.6379182,7.60502854 33.6468847,7.87931727 C33.6374711,8.15032952 33.7012834,8.41871654 33.831222,8.65461847 C33.9549161,8.89889752 34.2027275,9.04957467 34.4702582,9.04317269 C34.7368285,9.045428 34.9816538,8.89211213 35.1022719,8.64738956 C35.2375993,8.41067594 35.3051545,8.13939889 35.2971429,7.86485944 L35.300654,7.86485944 Z" id="path-14"></path>
                            <path d="M41.2977625,6.2437751 L40.3076076,9.49678715 L39.6633046,9.49678715 L39.2524957,8.08534137 C39.1517667,7.73758623 39.0685577,7.38470629 39.0032014,7.02811245 L38.9891566,7.02811245 C38.9284311,7.38384722 38.8433656,7.73472081 38.7345955,8.07811245 L38.2992083,9.48955823 L37.647883,9.48955823 L36.7156627,6.23654618 L37.4354561,6.23654618 L37.7865749,7.78172691 C37.8731842,8.14317269 37.9445783,8.49076305 38.0007573,8.82449799 L38.0130465,8.82449799 C38.0657143,8.55341365 38.1529088,8.20823293 38.2746299,7.78895582 L38.724062,6.23835341 L39.2981411,6.23835341 L39.7282616,7.7564257 C39.8324269,8.12630522 39.9172806,8.48293173 39.9828227,8.82630522 L40.0021343,8.82630522 C40.0549065,8.46599529 40.1264032,8.10885641 40.2163167,7.7564257 L40.6007917,6.23835341 L41.2977625,6.23835341 L41.2977625,6.2437751 Z" id="path-15"></path>
                            <path d="M44.9529088,9.49317269 L44.2506713,9.49317269 L44.2506713,7.63172691 C44.2506713,7.05823293 44.0382444,6.77148594 43.6133907,6.77148594 C43.417281,6.76526982 43.2293767,6.85264723 43.1042685,7.00823293 C42.9737789,7.16429547 42.9037715,7.36440855 42.907642,7.57028112 L42.907642,9.49136546 L42.2054045,9.49136546 L42.2054045,7.17088353 C42.2054045,6.88534137 42.1972117,6.5751004 42.1808262,6.24016064 L42.7987952,6.24016064 L42.8321515,6.74799197 L42.851463,6.74799197 C42.9374563,6.58640522 43.0634377,6.45110705 43.2166265,6.35582329 C43.4082562,6.23494429 43.6291779,6.17229431 43.8539071,6.1751004 C44.1283478,6.16617007 44.3945174,6.27250744 44.5912565,6.46967871 C44.8346988,6.71064257 44.95642,7.07208835 44.95642,7.55401606 L44.9529088,9.49317269 Z" id="path-16"></path>
                            <polygon id="path-17" points="46.8945955 9.49317269 46.192358 9.49317269 46.192358 4.75281124 46.8945955 4.75281124"></polygon>
                            <path d="M51.0377969,7.84136546 C51.0548908,8.29126411 50.9055696,8.73108985 50.6199656,9.07208835 C50.3215683,9.40104769 49.8980376,9.57874564 49.4612737,9.55823293 C49.0405928,9.57791958 48.6332526,9.40369941 48.3499828,9.08293173 C48.0698,8.75257708 47.9222896,8.3248152 47.9374182,7.88654618 C47.9233654,7.43912752 48.0752662,7.00297569 48.3622719,6.66666667 C48.6586384,6.34072459 49.0789729,6.16500323 49.5121859,6.18594378 C49.9353143,6.16779778 50.3450485,6.34073631 50.6340103,6.65943775 C50.9087373,6.98680505 51.0529873,7.40904064 51.0377969,7.84136546 Z M50.3074699,7.86485944 C50.314839,7.59533116 50.2498387,7.32893366 50.1196213,7.09497992 C49.9973482,6.8536474 49.7537555,6.7034725 49.4893632,6.7064257 C49.2209681,6.69828229 48.9715572,6.84840188 48.8468158,7.09317269 C48.7150212,7.33173696 48.6500008,7.60322131 48.6589673,7.87751004 C48.6502926,8.14947444 48.7153369,8.41855528 48.8468158,8.65461847 C48.9705099,8.89889752 49.2183213,9.04957467 49.485852,9.04317269 C49.7517917,9.04474062 49.9957748,8.89152657 50.1161102,8.64738956 C50.2507503,8.41052839 50.3171224,8.13911204 50.3074699,7.86485944 Z" id="path-18"></path>
                            <path d="M54.4454045,9.49317269 L53.8133907,9.49317269 L53.7607229,9.11907631 L53.7414114,9.11907631 C53.5231065,9.41468624 53.1763554,9.57927593 52.8162134,9.55823293 C52.5454671,9.5699101 52.2826086,9.46285643 52.0929088,9.26365462 C51.9280424,9.08595546 51.8389317,8.84784346 51.8453701,8.60220884 C51.8339195,8.23191536 52.0206328,7.88497522 52.3316695,7.69859438 C52.6546988,7.49257028 53.1093976,7.38955823 53.6957659,7.38955823 L53.6957659,7.32811245 C53.6957659,6.90040161 53.4763167,6.68654618 53.0374182,6.68654618 C52.7453321,6.68086936 52.4581751,6.76451868 52.2122892,6.92690763 L52.0683305,6.45341365 C52.3979703,6.25720583 52.7744795,6.16015356 53.155043,6.17329317 C53.9825129,6.17329317 54.396833,6.62148594 54.3980034,7.51787149 L54.3980034,8.71425703 C54.3943012,8.97476458 54.4101487,9.23517744 54.4454045,9.49317269 Z M53.7150775,8.37630522 L53.7150775,7.87570281 C52.939105,7.8624498 52.5511188,8.08052209 52.5511188,8.52991968 C52.5402437,8.67120562 52.5895807,8.81037799 52.6862995,8.91124498 C52.7828179,8.99896492 52.9088263,9.04436501 53.0374182,9.037751 C53.1928441,9.03736351 53.3438872,8.98468884 53.4675387,8.887751 C53.6291416,8.7709228 53.7243821,8.57957249 53.7220998,8.37630522 L53.7150775,8.37630522 Z" id="path-19"></path>
                            <path d="M58.4446472,9.49317269 L57.8196558,9.49317269 L57.7862995,8.97088353 L57.766988,8.97088353 C57.5733525,9.36068761 57.1709963,9.59237745 56.746988,9.55823293 C56.37763,9.56444177 56.0262863,9.39427993 55.7954561,9.09738956 C55.5333971,8.75861358 55.3993202,8.33363933 55.4180034,7.90100402 C55.3972014,7.43752461 55.5435076,6.98247875 55.8288124,6.62329317 C56.0728685,6.3294955 56.4311886,6.16261498 56.8066781,6.16787149 C57.2315318,6.16787149 57.5288124,6.31485944 57.6985198,6.60883534 L57.7125645,6.60883534 L57.7125645,4.75281124 L58.4148021,4.75281124 L58.4148021,8.61666667 C58.4183133,8.93353414 58.4282616,9.22570281 58.4446472,9.49317269 Z M57.7160757,8.12329317 L57.7160757,7.5811245 C57.7176243,7.50472643 57.7111495,7.42837976 57.6967642,7.35341365 C57.6609753,7.18446377 57.5743573,7.03142791 57.4492255,6.91606426 C57.3193935,6.7981825 57.1518377,6.73382284 56.9787263,6.73534137 C56.7324024,6.72687836 56.4988449,6.84811342 56.3590017,7.05702811 C56.2004782,7.29935452 56.1211452,7.58740221 56.1325301,7.87931727 C56.1200266,8.15738155 56.1958277,8.4320744 56.3484682,8.66184739 C56.4882472,8.8687189 56.7199914,8.98901849 56.9646816,8.98172691 C57.1809835,8.98890028 57.3876659,8.88956695 57.5212048,8.71425703 C57.6567241,8.54806238 57.7285306,8.33659133 57.7230981,8.11967871 L57.7160757,8.12329317 Z" id="path-20"></path>
                            <path d="M64.4716007,7.84136546 C64.4886946,8.29126411 64.3393734,8.73108985 64.0537694,9.07208835 C63.7547027,9.40224205 63.3295761,9.58007066 62.8915663,9.55823293 C62.4709724,9.57741113 62.0638338,9.40327715 61.7802754,9.08293173 C61.5000926,8.75257708 61.3525822,8.3248152 61.3677108,7.88654618 C61.3531752,7.43937012 61.504438,7.00324812 61.790809,6.66666667 C62.0873129,6.34093072 62.5075509,6.16524973 62.9407229,6.18594378 C63.3633314,6.16784319 63.7725095,6.34081771 64.0607917,6.65943775 C64.3380557,6.98572306 64.4848552,7.40807593 64.4716007,7.84136546 Z M63.7430293,7.86485944 C63.7503984,7.59533116 63.6853981,7.32893366 63.5551807,7.09497992 C63.4326212,6.85306206 63.188188,6.70278756 62.923167,6.7064257 C62.6531345,6.69722104 62.4019189,6.84830776 62.2771084,7.09497992 C62.1453138,7.33354419 62.0802934,7.60502854 62.0892599,7.87931727 C62.0782437,8.14981618 62.1402252,8.41817027 62.2683305,8.65461847 C62.3920246,8.89889752 62.6398359,9.04957467 62.9073666,9.04317269 C63.1739369,9.045428 63.4187622,8.89211213 63.5393804,8.64738956 C63.6743528,8.41052529 63.7418814,8.13935519 63.7342513,7.86485944 L63.7430293,7.86485944 Z" id="path-21"></path>
                            <path d="M68.2496386,9.49317269 L67.547401,9.49317269 L67.547401,7.63172691 C67.547401,7.05823293 67.334389,6.77148594 66.9083649,6.77148594 C66.7134205,6.76612121 66.5269314,6.85344278 66.4027539,7.00823293 C66.2713385,7.16385486 66.200654,7.36411526 66.2043718,7.57028112 L66.2043718,9.49136546 L65.5021343,9.49136546 L65.5021343,7.17088353 C65.5021343,6.88534137 65.4939415,6.5751004 65.4775559,6.24016064 L66.095525,6.24016064 L66.1288812,6.74799197 L66.1481928,6.74799197 C66.2345884,6.58670936 66.3604797,6.45150799 66.5133563,6.35582329 C66.7055694,6.23479772 66.927093,6.17214967 67.1523924,6.1751004 C67.4262306,6.16666475 67.6916752,6.27296556 67.8879862,6.46967871 C68.1314286,6.71064257 68.2531497,7.07208835 68.2531497,7.55401606 L68.2496386,9.49317269 Z" id="path-22"></path>
                            <path d="M72.9862306,6.78413655 L72.2120138,6.78413655 L72.2120138,8.36184739 C72.2120138,8.76305221 72.3489501,8.96365462 72.6228227,8.96365462 C72.7285657,8.96601908 72.8341694,8.95448006 72.937074,8.92931727 L72.9546299,9.47148594 C72.7786745,9.53134461 72.5938615,9.55887255 72.4086403,9.55281124 C72.1651799,9.56716375 71.9276175,9.47224427 71.757315,9.29257028 C71.6004819,9.11907631 71.5220654,8.82690763 71.5220654,8.41606426 L71.5220654,6.78413655 L71.0585886,6.78413655 L71.0585886,6.24196787 L71.5220654,6.24196787 L71.5220654,5.64558233 L72.2120138,5.43232932 L72.2120138,6.24016064 L72.9879862,6.24016064 L72.9862306,6.78413655 Z" id="path-23"></path>
                            <path d="M76.7133563,9.49317269 L76.0111188,9.49317269 L76.0111188,7.64437751 C76.0111188,7.0624498 75.7986919,6.77148594 75.3738382,6.77148594 C75.0629852,6.75974932 74.7848905,6.9690357 74.7014458,7.27751004 C74.6780812,7.36212327 74.6668439,7.44979509 74.6680895,7.537751 L74.6680895,9.49136546 L73.965852,9.49136546 L73.965852,4.75281124 L74.6680895,4.75281124 L74.6680895,6.71004016 L74.6821343,6.71004016 C74.8791107,6.36376802 75.2440333,6.15584056 75.6336661,6.16787149 C75.9038551,6.15952856 76.1654614,6.26607224 76.3569707,6.4624498 C76.5910499,6.70341365 76.7080895,7.06485944 76.7080895,7.54678715 L76.7133563,9.49317269 Z" id="path-24"></path>
                            <path d="M80.5563511,7.71485944 C80.5576138,7.82450649 80.5487966,7.93403061 80.5300172,8.04196787 L78.4233046,8.04196787 C78.4145978,8.32155903 78.5264178,8.59080791 78.728778,8.77751004 C78.9258355,8.9354183 79.1709823,9.0161213 79.4204819,9.00522088 C79.7116993,9.00915761 80.0010685,8.95705925 80.2737005,8.85160643 L80.3843029,9.35401606 C80.0459413,9.49696274 79.6825618,9.56648509 79.3169019,9.55823293 C78.888873,9.57996553 78.4714476,9.41686198 78.1652324,9.10823293 C77.8743095,8.78549019 77.7229177,8.35512469 77.7456454,7.91546185 C77.7300684,7.4725959 77.8689372,7.03860809 78.1371429,6.69196787 C78.4045594,6.34745101 78.8151042,6.15425346 79.243167,6.17148594 C79.6529396,6.14737804 80.0453602,6.34456643 80.2789673,6.69196787 C80.4732401,6.99459978 80.5702674,7.35240184 80.5563511,7.71485944 Z M79.8857143,7.53413655 C79.8952981,7.33923015 79.8475761,7.14587699 79.748778,6.97931727 C79.6329753,6.77613928 79.4173347,6.65575352 79.1887435,6.66666667 C78.9660666,6.6627601 78.7561062,6.77319933 78.6287091,6.96124498 C78.5089514,7.12455104 78.4365232,7.31940536 78.4197935,7.52329317 L79.8857143,7.53413655 Z" id="path-25"></path>
                        </g>
                    </g>
                </g>
            </g>
        </g>
    </g>
</svg>