<?xml version="1.0" encoding="UTF-8"?>
<svg width="14px" height="12px" viewBox="0 0 14 12" version="1.1" xmlns="http://www.w3.org/2000/svg" xmlns:xlink="http://www.w3.org/1999/xlink">
    <!-- Generator: Sketch 51.3 (57544) - http://www.bohemiancoding.com/sketch -->
    <title>blog_ic</title>
    <desc>Created with Sketch.</desc>
    <defs></defs>
    <g id="Profile" stroke="none" stroke-width="1" fill="none" fill-rule="evenodd">
        <g id="FITPASS_Mob_Profile_menu" transform="translate(-116.000000, -229.000000)">
            <g id="Group-12-Copy-2" transform="translate(99.000000, 215.000000)">
                <g id="Group-7" transform="translate(16.000000, 12.000000)">
                    <g id="blog_ic">
                        <g id="Icon-24px">
                            <path d="M13.3333333,2.66666667 L2.66666667,2.66666667 C1.93333333,2.66666667 1.34,3.26666667 1.34,4 L1.33333333,12 C1.33333333,12.7333333 1.93333333,13.3333333 2.66666667,13.3333333 L13.3333333,13.3333333 C14.0666667,13.3333333 14.6666667,12.7333333 14.6666667,12 L14.6666667,4 C14.6666667,3.26666667 14.0666667,2.66666667 13.3333333,2.66666667 L13.3333333,2.66666667 Z M10,12 L2.66666667,12 L2.66666667,9.33333333 L10,9.33333333 L10,12 L10,12 Z M10,8.66666667 L2.66666667,8.66666667 L2.66666667,6 L10,6 L10,8.66666667 L10,8.66666667 Z M13.3333333,12 L10.6666667,12 L10.6666667,6 L13.3333333,6 L13.3333333,12 L13.3333333,12 Z" id="Shape" fill="#0F1F2E"></path>
                            <polygon id="Shape" points="0 0 16 0 16 16 0 16"></polygon>
                        </g>
                    </g>
                </g>
            </g>
        </g>
    </g>
</svg>