<?xml version="1.0" encoding="utf-8"?>
<!-- Generator: Adobe Illustrator 16.0.0, SVG Export Plug-In . SVG Version: 6.00 Build 0)  -->
<!DOCTYPE svg PUBLIC "-//W3C//DTD SVG 1.1//EN" "http://www.w3.org/Graphics/SVG/1.1/DTD/svg11.dtd">
<svg version="1.1" id="Layer_1" xmlns="http://www.w3.org/2000/svg" xmlns:xlink="http://www.w3.org/1999/xlink" x="0px" y="0px"
	 width="272.333px" height="52.334px" viewBox="0 0 272.333 52.334" enable-background="new 0 0 272.333 52.334"
	 xml:space="preserve">
<g>
	<g>
		<path fill="#FFFFFF" d="M32.958,25.841c-0.592-0.017-1.175-0.156-1.741-0.421c-0.563-0.265-1.04-0.618-1.43-1.065
			c-0.392-0.444-0.685-0.937-0.877-1.478c-0.192-0.542-0.279-1.104-0.264-1.691c0.021-0.586,0.156-1.158,0.416-1.714
			c0.258-0.553,0.608-1.024,1.05-1.412c0.438-0.392,0.928-0.685,1.466-0.883c0.391-0.142,0.792-0.228,1.208-0.26
			c0.561-0.028,1.103,0.039,1.623,0.207c0.545,0.176,1.046,0.45,1.503,0.821c0.454,0.371,0.826,0.83,1.104,1.371
			c0.28,0.544,0.444,1.109,0.485,1.696c0.039,0.586-0.027,1.154-0.192,1.698c-0.173,0.55-0.445,1.054-0.819,1.515
			c-0.375,0.461-0.833,0.835-1.383,1.117c-0.454,0.236-0.911,0.384-1.386,0.455C33.471,25.83,33.219,25.847,32.958,25.841"/>
		<path fill="#FFFFFF" d="M40.632,17.324c0.356,0.909,0.559,1.899,0.559,2.935c0,4.479-3.635,8.109-8.112,8.109
			c-4.482,0-8.113-3.632-8.113-8.109c0-1.035,0.201-2.026,0.557-2.935h-6.416c-0.199,0.946-0.305,1.926-0.305,2.935
			c0,1.246,0.159,2.454,0.458,3.605c0.301,1.153,0.745,2.25,1.304,3.268c0,0,0.016,0.03,0.049,0.082
			c0.114,0.204,0.231,0.404,0.357,0.6c1.299,2.197,5.345,9.034,6.512,11.058c0.449,0.776,1.182,2.054,1.982,3.434
			c0.292,0.509,0.596,1.032,0.892,1.55c1.408,2.428,2.719,4.706,2.719,4.706s1.316-2.278,2.72-4.706
			c0.295-0.518,0.599-1.041,0.895-1.55c0.794-1.378,1.534-2.657,1.979-3.434c1.301-2.254,5.954-10.097,6.602-11.196
			c0.017-0.02,0.027-0.043,0.041-0.063c0.026-0.039,0.041-0.067,0.041-0.067c1.268-2.134,2.001-4.622,2.001-7.286
			c0-1.009-0.107-1.989-0.309-2.935H40.632z"/>
		<rect x="16.229" y="12.134" fill="#FFFFFF" width="33.699" height="3.171"/>
		<rect x="51.533" y="6.338" fill="#FFFFFF" width="3.168" height="15.192"/>
		<rect x="57.028" y="9.114" fill="#FFFFFF" width="3.169" height="9.636"/>
		<rect x="11.42" y="6.338" fill="#FFFFFF" width="3.171" height="15.19"/>
		<rect x="5.923" y="9.116" fill="#FFFFFF" width="3.171" height="9.637"/>
	</g>
	<g>
		<path fill="#FFFFFF" d="M87.939,18.183H70.545v8.348h15.429v4.894H70.545v12.46h-5.381V13.283h22.774V18.183z"/>
		<path fill="#FFFFFF" d="M101.272,13.283v30.602h-5.379V13.283H101.272z"/>
		<path fill="#FFFFFF" d="M124.133,43.885h-5.425V18.27h-9.705v-4.986h24.833v4.986h-9.703V43.885z"/>
		<path fill="#FFFFFF" d="M152.719,34.05h-6.076v9.835h-5.38V13.283h12.066c7.126,0,11.628,4.023,11.628,10.274
			C164.958,30.465,159.451,34.05,152.719,34.05z M152.893,18.183h-6.25v11.013h6.25c4.065,0,6.604-2.229,6.604-5.506
			C159.498,20.061,156.915,18.183,152.893,18.183z"/>
		<path fill="#FFFFFF" d="M198.443,43.885h-5.684l-3.104-7.388h-14.468l-3.147,7.388h-5.507l13.459-30.817h4.989L198.443,43.885z
			 M182.402,19.494l-5.249,12.24h10.534L182.402,19.494z"/>
		<path fill="#FFFFFF" d="M216.761,26.135c6.463,1.574,9.833,3.891,9.833,9.006c0,5.771-4.505,9.181-10.934,9.181
			c-4.672,0-9.092-1.617-12.765-4.897l3.237-3.844c2.929,2.534,5.859,3.979,9.66,3.979c3.326,0,5.421-1.53,5.421-3.892
			c0-2.23-1.224-3.411-6.907-4.723c-6.515-1.572-10.184-3.496-10.184-9.181c0-5.333,4.371-8.916,10.447-8.916
			c4.459,0,8.003,1.354,11.102,3.846l-2.887,4.068c-2.752-2.055-5.504-3.149-8.302-3.149c-3.15,0-4.982,1.616-4.982,3.671
			C209.501,23.69,210.898,24.738,216.761,26.135z"/>
		<path fill="#FFFFFF" d="M246.042,26.135c6.471,1.574,9.836,3.891,9.836,9.006c0,5.771-4.502,9.181-10.931,9.181
			c-4.674,0-9.088-1.617-12.762-4.897l3.234-3.844c2.929,2.534,5.858,3.979,9.664,3.979c3.319,0,5.418-1.53,5.418-3.892
			c0-2.23-1.223-3.411-6.906-4.723c-6.515-1.572-10.184-3.496-10.184-9.181c0-5.333,4.368-8.916,10.445-8.916
			c4.455,0,8.001,1.354,11.104,3.846l-2.885,4.068c-2.754-2.055-5.508-3.149-8.305-3.149c-3.152,0-4.986,1.616-4.986,3.671
			C238.786,23.69,240.184,24.738,246.042,26.135z"/>
		<g>
			<path fill="#FFFFFF" d="M258.767,17.065v-0.026c0-2.593,2.107-4.792,4.778-4.792c2.672,0,4.754,2.172,4.754,4.766v0.026
				c0,2.592-2.106,4.792-4.78,4.792C260.849,21.831,258.767,19.658,258.767,17.065z M267.747,17.039v-0.026
				c0-2.331-1.807-4.238-4.201-4.238c-2.41,0-4.226,1.933-4.226,4.265v0.026c0,2.329,1.802,4.239,4.199,4.239
				C265.927,21.304,267.747,19.367,267.747,17.039z M261.441,14.366h2.354c0.803,0,1.356,0.21,1.713,0.568
				c0.288,0.289,0.432,0.668,0.432,1.157v0.026c0,0.776-0.406,1.29-1.038,1.551l1.211,1.764h-1.619l-1.027-1.539h-0.027h-0.591
				v1.539h-1.407V14.366z M263.768,16.803c0.491,0,0.764-0.224,0.764-0.595v-0.023c0-0.408-0.299-0.608-0.775-0.608h-0.908v1.227
				H263.768z"/>
		</g>
	</g>
</g>
</svg>
