<?xml version="1.0" encoding="UTF-8"?>
<svg width="90px" height="27px" viewBox="0 0 90 27" version="1.1" xmlns="http://www.w3.org/2000/svg" xmlns:xlink="http://www.w3.org/1999/xlink">
    <!-- Generator: Sketch 51.3 (57544) - http://www.bohemiancoding.com/sketch -->
    <title>google_light</title>
    <desc>Created with Sketch.</desc>
    <defs></defs>
    <g id="Website-detail-page" stroke="none" stroke-width="1" fill="none" fill-rule="evenodd">
        <g id="FITPASS_home_page_3-Copy" transform="translate(-1197.000000, -5207.000000)" fill="#FFFFFF">
            <g id="Group-44" transform="translate(0.000000, 4979.000000)">
                <g id="Group-29" transform="translate(1095.000000, 198.000000)">
                    <g id="Group-39">
                        <g id="google_light" transform="translate(102.000000, 30.000000)">
                            <path d="M32.5599609,14.834076 L28.3710937,14.834076 L28.3710937,16.0920455 L31.3417969,16.0920455 C31.1941406,17.8571172 29.7439453,18.6097638 28.3746094,18.6097638 C26.5407436,18.6097637 25.0541016,17.1049438 25.0541016,15.2486543 C25.0541016,13.3923648 26.5407436,11.8875449 28.3746094,11.8875449 C29.2097957,11.8854885 30.0132124,12.2114226 30.6158203,12.7967703 L31.4947266,11.8839862 C30.6477879,11.0544246 29.5089789,10.601016 28.3306641,10.6242374 C26.6978487,10.6363155 25.1954307,11.529224 24.3893566,12.9666131 C23.5832824,14.4040022 23.5960138,16.1674982 24.422755,17.5928093 C25.2494962,19.0181203 26.7646455,19.8887078 28.3974609,19.8766298 C30.8425781,19.8766298 32.6337891,18.180951 32.6337891,15.6739085 C32.6392766,15.3937659 32.613925,15.1138759 32.5582031,14.8394139 L32.5599609,14.834076 Z" id="Shape"></path>
                            <path d="M36.1388672,15.0902961 C36.984375,15.0902961 37.7929687,15.7824462 37.7929687,16.9034091 C37.7929687,18.024372 36.9949219,18.7058463 36.1423828,18.7058463 C35.2054687,18.7058463 34.4654297,17.9460825 34.4654297,16.8945126 C34.4654297,15.8429426 35.1949219,15.095634 36.1458984,15.095634 L36.1388672,15.0902961 Z M36.1212891,13.9230712 C34.5027958,13.9299457 33.1951572,15.2615293 33.1980648,16.8998245 C33.2009725,18.5381198 34.5133292,19.8649391 36.1318364,19.8659272 C37.7503436,19.8669154 39.0642805,18.5416996 39.0691406,16.9034091 C39.0691406,14.9354964 37.5363281,13.9212919 36.1230469,13.9212919 L36.1212891,13.9230712 Z" id="Shape"></path>
                            <path d="M42.6287109,15.0902961 C43.4742187,15.0902961 44.2757812,15.7824462 44.2757812,16.8980712 C44.2757812,18.0136962 43.4777344,18.7005084 42.6251953,18.7005084 C41.6882812,18.7005084 40.9482422,17.9407446 40.9482422,16.8891746 C40.9482422,15.8376047 41.6777344,15.0902961 42.6287109,15.0902961 Z M42.6111328,13.9230712 C40.9924062,13.9289655 39.6838858,15.2601189 39.6861489,16.8986476 C39.688412,18.5371762 41.0006043,19.8646209 42.6193409,19.8659338 C44.2380775,19.8672466 45.5523696,18.541932 45.5572266,16.9034091 C45.5572266,14.9354964 44.0244141,13.9212919 42.6111328,13.9212919 L42.6111328,13.9230712 Z" id="Shape"></path>
                            <path d="M49.0816406,15.0920754 C49.8550781,15.0920754 50.6496094,15.7610945 50.6496094,16.9034091 C50.6496094,18.0457237 49.8568359,18.704067 49.0675781,18.704067 C48.2255859,18.704067 47.4433594,18.0119169 47.4433594,16.9140849 C47.4433594,15.7735496 48.2572266,15.0920754 49.0851562,15.0920754 L49.0816406,15.0920754 Z M48.9673828,13.9266298 C47.3853516,13.9266298 46.1548828,15.3251645 46.1548828,16.8962919 C46.1548828,18.6844946 47.5927734,19.8712919 48.9462891,19.8712919 C49.5664834,19.9062595 50.1655139,19.6375039 50.5564453,19.1488935 L50.5564453,19.7342853 C50.5564453,20.7591657 49.9412109,21.3730263 49.0130859,21.3730263 C48.3449218,21.3658384 47.7489682,20.9460394 47.5101563,20.3143391 L46.3816406,20.7911932 C46.7824219,21.6488188 47.5875,22.5420305 49.0183594,22.5420305 C50.5880859,22.5420305 51.7833984,21.5420604 51.7833984,19.4442584 L51.7833984,14.1063397 L50.5529297,14.1063397 L50.5529297,14.6081041 C50.1476648,14.16019 49.5707574,13.9116819 48.9708984,13.9266298 L48.9673828,13.9266298 Z" id="Shape"></path>
                            <path d="M57.5648437,15.0618272 C58.0179318,15.0427222 58.441166,15.2902013 58.6511719,15.6970395 L56.0144531,16.8091059 C55.9019531,15.9479217 56.7070312,15.0618272 57.5578125,15.0618272 L57.5648437,15.0618272 Z M57.5138672,13.9195126 C56.025,13.9195126 54.7751953,15.118765 54.7751953,16.8873953 C54.7751953,18.7592255 56.1691406,19.8695126 57.65625,19.8695126 C58.6384659,19.8705758 59.5584802,19.3829926 60.1171875,18.5652811 L59.1029297,17.8820275 C58.8034012,18.396208 58.2546889,18.7085478 57.6650391,18.7005084 C57.0484918,18.7263598 56.4784449,18.3698633 56.2253906,17.8001794 L60.1628906,16.1472039 L59.9554687,15.6578947 C59.5714293,14.6254347 58.6035966,13.9349423 57.5138672,13.9159539 L57.5138672,13.9195126 Z" id="Shape"></path>
                            <rect id="Rectangle-path" fill-rule="nonzero" x="52.7677734" y="10.9338367" width="1.29375" height="8.75952452"></rect>
                            <rect id="Rectangle-path" fill-rule="nonzero" x="70.1068359" y="10.9338367" width="1.29375" height="8.75952452"></rect>
                            <rect id="Rectangle-path" fill-rule="nonzero" x="63.2496094" y="10.9338367" width="1.29375" height="8.75952452"></rect>
                            <path d="M63.2496094,10.9338367 L66.3785156,10.9338367 C67.8987476,10.9387204 69.129941,12.1849683 69.1347656,13.7237889 C69.129941,15.2626095 67.8987476,16.5088574 66.3785156,16.513741 L63.2496094,16.513741 L63.2496094,10.9338367 Z M64.5433594,12.2434061 L64.5433594,15.205951 L66.3785156,15.205951 C66.9134263,15.2247196 67.4158339,14.9465674 67.6887856,14.4805351 C67.9617373,14.0145029 67.9617373,13.4348542 67.6887856,12.9688219 C67.4158339,12.5027896 66.9134263,12.2246375 66.3785156,12.2434061 L64.5433594,12.2434061 Z" id="Shape"></path>
                            <polygon id="Shape" points="80.9472656 22.5438098 84.6914063 13.9195126 83.278125 13.9195126 79.5339844 22.5438098"></polygon>
                            <polygon id="Shape" points="81.365625 20.5705592 78.4775391 13.9195126 79.8908203 13.9195126 81.8806641 18.506564 81.365625 18.506564"></polygon>
                            <path d="M76.6916016,19.6933612 L77.9853516,19.6933612 L77.9853516,16.5475478 C78.1875,13.2985347 74.1181641,12.533433 72.5783203,14.8767793 L73.6189453,15.5885018 C74.3712891,14.2558014 76.5210937,14.5618421 76.6617187,15.990625 C76.019896,15.7963507 75.3493981,15.7174605 74.6806641,15.7575359 C73.6857422,15.8589563 72.8332031,16.4995066 72.6996094,17.5457386 C72.6257813,18.111558 72.7505859,18.8090461 73.1408203,19.2343002 C73.7490234,19.8962022 74.7474609,19.9869468 75.5683594,19.7680921 C76.01196,19.6378107 76.4045199,19.3710385 76.6916016,19.0047697 L76.6916016,19.7164922 L76.6916016,19.6933612 Z M76.6916016,17.1614085 C76.5196459,17.8769935 75.967683,18.4357055 75.2607422,18.6097638 C73.7648438,19.0225628 73.3939453,16.5635616 75.6123047,16.9016298 C75.9797438,16.9514901 76.341318,17.0385183 76.6916016,17.1614085 Z" id="Shape"></path>
                            <path d="M28.0107422,5.60303529 L26.1035156,5.60303529 L26.1035156,6.17597189 L27.4552734,6.17597189 C27.3884766,6.978439 26.7275391,7.3218451 26.1052734,7.3218451 C25.2703742,7.3218451 24.5935547,6.63674972 24.5935547,5.79164175 C24.5935547,4.94653377 25.2703742,4.2614384 26.1052734,4.2614384 C26.485326,4.26081106 26.8508029,4.40942721 27.1248047,4.67601675 L27.5203125,4.2614384 C27.1357476,3.88501299 26.6190566,3.67888219 26.0841797,3.68850179 C24.9382731,3.69607404 24.0079416,4.6283009 23.9888672,5.78808313 C24.0033457,6.96313364 24.9531495,7.90546596 26.1140625,7.896561 C27.2267578,7.896561 28.0476562,7.12434211 28.0476562,5.98380682 C28.0499816,5.85595383 28.0381898,5.72823802 28.0125,5.60303529 L28.0107422,5.60303529 Z" id="Shape"></path>
                            <rect id="Rectangle-path" fill-rule="nonzero" x="35.8048828" y="3.82728768" width="1" height="3.98564593"></rect>
                            <polygon id="Shape" points="32.5089844 7.81471292 33.0978516 7.81471292 33.0978516 4.42335526 34.0646484 4.42335526 34.0646484 3.82728768 31.5439453 3.82728768 31.5439453 4.42335526 32.5107422 4.42335526"></polygon>
                            <polygon id="Shape" points="28.6664062 7.81471292 30.9234375 7.81471292 30.9234375 7.21864533 29.2552734 7.21864533 29.2552734 6.11903409 30.7230469 6.11903409 30.7230469 5.51584928 29.2552734 5.51584928 29.2552734 4.42335526 30.9234375 4.42335526 30.9234375 3.82728768 28.6664062 3.82728768"></polygon>
                            <polygon id="Shape" points="37.8386719 7.81471292 38.4275391 7.81471292 38.4275391 4.42335526 39.3943359 4.42335526 39.3943359 3.82728768 36.871875 3.82728768 36.871875 4.42335526 37.8386719 4.42335526"></polygon>
                            <path d="M43.0013672,7.3218451 C42.3860422,7.33850559 41.8221834,6.97585109 41.5757079,6.40491022 C41.3292324,5.83396935 41.449366,5.16876974 41.8794533,4.72302093 C42.3095407,4.27727212 42.9636853,4.13999853 43.5333912,4.37593866 C44.1030972,4.6118788 44.4745834,5.17391099 44.4726563,5.79697967 C44.477814,6.19743845 44.3251042,6.58346877 44.0483188,6.86964941 C43.7715333,7.15583004 43.3934932,7.31856536 42.9978516,7.3218451 L43.0013672,7.3218451 Z M43.0013672,3.68850179 C41.8554606,3.69607404 40.9251291,4.6283009 40.9060547,5.78808313 C40.9388845,6.93504091 41.8669101,7.84759142 43.0004883,7.84759142 C44.1340665,7.84759142 45.0620921,6.93504091 45.0949219,5.78808313 C45.0758654,4.62898749 44.1465887,3.69703572 43.0013672,3.68850179 Z" id="Shape"></path>
                            <polygon id="Shape" points="45.6837891 7.81471292 46.2726562 7.81471292 46.2726562 4.91088517 48.1640625 7.81471292 48.7511719 7.81471292 48.7511719 3.82728768 48.1623047 3.82728768 48.1623047 6.73111543 46.2726562 3.82728768 45.6837891 3.82728768"></polygon>
                            <path d="M8.50429687,22.161259 C8.56471269,22.1381787 8.62345117,22.1108286 8.68007812,22.0794109 L16.7660156,17.5991178 L14.85,15.6578947 L8.50429687,22.1594797 L8.50429687,22.161259 Z M17.1175781,17.3998355 L15.1171875,15.3785437 L17.1158203,13.3323415 L19.8667969,14.851869 C20.5453125,15.2255233 20.1972656,15.6934809 19.8667969,15.8767494 L17.1263672,17.3998355 L17.1175781,17.3998355 Z M16.7660156,13.1295006 L8.68007812,8.66522129 C8.5919005,8.61832234 8.49598168,8.58816965 8.39707031,8.57625598 L14.8482422,15.0991926 L16.7660156,13.1419557 L16.7660156,13.1295006 Z M7.92421875,8.65988337 L14.5740234,15.380323 L7.95761719,22.1594797 C7.76425781,22.0349282 7.66054687,21.766253 7.65878906,21.4192883 C7.65878906,20.7538278 7.60253906,10.1811902 7.59902344,9.38761962 C7.59550781,9.00684809 7.734375,8.77553828 7.92421875,8.65988337 Z" id="Shape"></path>
                            <path d="M86.1082031,26.9849581 L3.853125,26.9849581 C1.73889509,26.9948235 0.0154807615,25.271028 0,23.1309809 L0,3.85575658 C0.0145165175,1.71501296 1.73821383,-0.00986158424 3.853125,1.17479404e-15 L86.1082031,1.17479404e-15 C88.2231143,-0.00986158424 89.9468116,1.71501296 89.9613281,3.85575658 L89.9613281,23.1309809 C89.9458474,25.271028 88.222433,26.9948235 86.1082031,26.9849581 Z M3.853125,0.460840311 C1.99091443,0.451965943 0.473128531,1.97079789 0.460546875,3.85575658 L0.460546875,23.1309809 C0.474092948,25.015243 1.99159577,26.5329958 3.853125,26.5241178 L86.1082031,26.5241178 C87.9690476,26.532012 89.4854781,25.0145455 89.4990234,23.1309809 L89.4990234,3.85575658 C89.4854774,1.97149441 87.9679745,0.453741613 86.1064453,0.462619617 L3.853125,0.460840311 Z" id="Shape" fill-rule="nonzero"></path>
                        </g>
                    </g>
                </g>
            </g>
        </g>
    </g>
</svg>