<?xml version="1.0" encoding="UTF-8"?>
<svg width="18px" height="14px" viewBox="0 0 18 14" version="1.1" xmlns="http://www.w3.org/2000/svg" xmlns:xlink="http://www.w3.org/1999/xlink">
    <!-- Generator: Sketch 51.3 (57544) - http://www.bohemiancoding.com/sketch -->
    <title>studio_log_ic</title>
    <desc>Created with Sketch.</desc>
    <defs></defs>
    <g id="Profile" stroke="none" stroke-width="1" fill="none" fill-rule="evenodd">
        <g id="FITPASS_Mob_Profile_menu" transform="translate(-115.000000, -147.000000)">
            <g id="Group-12" transform="translate(99.000000, 133.000000)">
                <g id="Group-7" transform="translate(16.000000, 12.000000)">
                    <g id="studio_log_ic">
                        <g id="Icon-24px">
                            <polygon id="Shape" points="0 0 16 0 16 16 0 16"></polygon>
                            <path d="M14,2 L2,2 C1.26666667,2 0.666666667,2.6 0.666666667,3.33333333 L0.666666667,11.3333333 C0.666666667,12.0666667 1.26666667,12.6666667 2,12.6666667 L5.33333333,12.6666667 L5.33333333,14 L10.6666667,14 L10.6666667,12.6666667 L14,12.6666667 C14.7333333,12.6666667 15.3266667,12.0666667 15.3266667,11.3333333 L15.3333333,3.33333333 C15.3333333,2.6 14.7333333,2 14,2 L14,2 Z M14,11.3333333 L2,11.3333333 L2,3.33333333 L14,3.33333333 L14,11.3333333 L14,11.3333333 Z M12.6666667,5.33333333 L5.33333333,5.33333333 L5.33333333,6.66666667 L12.6666667,6.66666667 L12.6666667,5.33333333 L12.6666667,5.33333333 Z M12.6666667,8 L5.33333333,8 L5.33333333,9.33333333 L12.6666667,9.33333333 L12.6666667,8 L12.6666667,8 Z M4.66666667,5.33333333 L3.33333333,5.33333333 L3.33333333,6.66666667 L4.66666667,6.66666667 L4.66666667,5.33333333 L4.66666667,5.33333333 Z M4.66666667,8 L3.33333333,8 L3.33333333,9.33333333 L4.66666667,9.33333333 L4.66666667,8 L4.66666667,8 Z" id="Shape" fill="#0F1F2E"></path>
                            <circle id="Oval-4" fill="#FFFFFF" cx="13.6666667" cy="11.6666667" r="3.66666667"></circle>
                            <path d="M15.2,10.8 C15.4666667,10.8 15.7333333,11.0666667 15.7333333,11.3333333 L15.7333333,13.4666667 C15.7333333,13.7333333 15.4666667,14 15.2,14 L12.5333333,14 C12.2666667,14 12,13.7333333 12,13.4666667 L12,11.3333333 C12,11.0666667 12.2666667,10.8 12.5333333,10.8 L12.5333333,10 C12.5333333,9.25333333 13.12,8.66666667 13.8666667,8.66666667 C14.6133333,8.66666667 15.2,9.25333333 15.2,10 L15.2,10.8 Z M14.6666667,10.8 L14.6666667,10 C14.6666667,9.57333333 14.2933333,9.2 13.8666667,9.2 C13.44,9.2 13.0666667,9.57333333 13.0666667,10 L13.0666667,10.8 L14.6666667,10.8 Z" id="Combined-Shape" fill="#0F1F2E"></path>
                        </g>
                    </g>
                </g>
            </g>
        </g>
    </g>
</svg>